<svg width="100%" height="10%" viewBox="0 0 14 13" fill="none" xmlns="http://www.w3.org/2000/svg">
<path d="M6.66667 12.2333L5.7 11.3667C4.57778 10.3556 3.65 9.48333 2.91667 8.75C2.18333 8.01667 1.6 7.35822 1.16667 6.77467C0.733333 6.19156 0.430667 5.65556 0.258667 5.16667C0.0862222 4.67778 0 4.17778 0 3.66667C0 2.62222 0.35 1.75 1.05 1.05C1.75 0.35 2.62222 0 3.66667 0C4.24444 0 4.79444 0.122222 5.31667 0.366667C5.83889 0.611111 6.28889 0.955555 6.66667 1.4C7.04444 0.955555 7.49444 0.611111 8.01667 0.366667C8.53889 0.122222 9.08889 0 9.66667 0C10.7111 0 11.5833 0.35 12.2833 1.05C12.9833 1.75 13.3333 2.62222 13.3333 3.66667C13.3333 4.17778 13.2473 4.67778 13.0753 5.16667C12.9029 5.65556 12.6 6.19156 12.1667 6.77467C11.7333 7.35822 11.15 8.01667 10.4167 8.75C9.68333 9.48333 8.75556 10.3556 7.63333 11.3667L6.66667 12.2333ZM6.66667 10.4333C7.73333 9.47778 8.61111 8.65822 9.3 7.97467C9.98889 7.29156 10.5333 6.69733 10.9333 6.192C11.3333 5.68622 11.6111 5.236 11.7667 4.84133C11.9222 4.44711 12 4.05556 12 3.66667C12 3 11.7778 2.44444 11.3333 2C10.8889 1.55556 10.3333 1.33333 9.66667 1.33333C9.14444 1.33333 8.66111 1.48044 8.21667 1.77467C7.77222 2.06933 7.46667 2.44444 7.3 2.9H6.03333C5.86667 2.44444 5.56111 2.06933 5.11667 1.77467C4.67222 1.48044 4.18889 1.33333 3.66667 1.33333C3 1.33333 2.44444 1.55556 2 2C1.55556 2.44444 1.33333 3 1.33333 3.66667C1.33333 4.05556 1.41111 4.44711 1.56667 4.84133C1.72222 5.236 2 5.68622 2.4 6.192C2.8 6.69733 3.34444 7.29156 4.03333 7.97467C4.72222 8.65822 5.6 9.47778 6.66667 10.4333Z" fill="white"/>
</svg>
